<?xml version="1.0" encoding="UTF-8" standalone="no"?>
<!DOCTYPE svg PUBLIC "-//W3C//DTD SVG 1.1//EN" "http://www.w3.org/Graphics/SVG/1.1/DTD/svg11.dtd">
<svg version="1.1" xmlns="http://www.w3.org/2000/svg" xmlns:xlink="http://www.w3.org/1999/xlink" preserveAspectRatio="xMidYMid meet" viewBox="0 0 640 640" width="640" height="640"><defs><path d="M301.81 152.63C301.81 234.76 235.14 301.43 153.01 301.43C70.89 301.43 4.21 234.76 4.21 152.63C4.21 70.51 70.89 3.83 153.01 3.83C235.14 3.83 301.81 70.51 301.81 152.63Z" id="bb8QnhkpF"></path><path d="M14.74 309.1L218.26 309.1L218.26 453.1L14.74 453.1L14.74 309.1Z" id="ai1svMdM8"></path><clipPath id="clipd1SeKychh"><use xlink:href="#ai1svMdM8" opacity="1"></use></clipPath><path d="M314.89 158.95L518.41 158.95L518.41 302.95L314.89 302.95L314.89 158.95Z" id="dyec5kLBu"></path><clipPath id="clipa1gVQnvInX"><use xlink:href="#dyec5kLBu" opacity="1"></use></clipPath><path d="M314.89 8.63L518.41 8.63L518.41 152.63L314.89 152.63L314.89 8.63Z" id="ambhWLWg2"></path><clipPath id="clipdAKiVDMjB"><use xlink:href="#ambhWLWg2" opacity="1"></use></clipPath><path d="M13.98 461.65L217.5 461.65L217.5 605.65L13.98 605.65L13.98 461.65Z" id="fxksLofRQ"></path><clipPath id="clipapZJB1WY8"><use xlink:href="#fxksLofRQ" opacity="1"></use></clipPath><path d="M148.5 125.99C148.5 151.02 128.18 171.34 103.14 171.34C78.11 171.34 57.79 151.02 57.79 125.99C57.79 100.96 78.11 80.63 103.14 80.63C128.18 80.63 148.5 100.96 148.5 125.99Z" id="a8NxuoM3n"></path><path d="M247.48 125.99C247.48 151.02 227.16 171.34 202.12 171.34C177.09 171.34 156.77 151.02 156.77 125.99C156.77 100.96 177.09 80.63 202.12 80.63C227.16 80.63 247.48 100.96 247.48 125.99Z" id="e4yb82L9yk"></path><path d="M200.08 206.98C200.08 232.01 179.76 252.33 154.72 252.33C129.69 252.33 109.37 232.01 109.37 206.98C109.37 181.95 129.69 161.62 154.72 161.62C179.76 161.62 200.08 181.95 200.08 206.98Z" id="e49dSXKdy"></path><path d="M529.1 464.89C529.1 547.02 462.43 613.69 380.3 613.69C298.18 613.69 231.5 547.02 231.5 464.89C231.5 382.77 298.18 316.09 380.3 316.09C462.43 316.09 529.1 382.77 529.1 464.89Z" id="g1FGjRXNtc"></path><path d="M375.79 438.24C375.79 463.28 355.47 483.6 330.44 483.6C305.41 483.6 285.08 463.28 285.08 438.24C285.08 413.21 305.41 392.89 330.44 392.89C355.47 392.89 375.79 413.21 375.79 438.24Z" id="c15Sz43ikw"></path><path d="M474.77 438.24C474.77 463.28 454.45 483.6 429.42 483.6C404.39 483.6 384.06 463.28 384.06 438.24C384.06 413.21 404.39 392.89 429.42 392.89C454.45 392.89 474.77 413.21 474.77 438.24Z" id="c6j25Wdpr"></path><path d="M427.37 519.23C427.37 544.27 407.05 564.59 382.02 564.59C356.99 564.59 336.66 544.27 336.66 519.23C336.66 494.2 356.99 473.88 382.02 473.88C407.05 473.88 427.37 494.2 427.37 519.23Z" id="b2Q4qepvYO"></path></defs><g><g><g><g><use xlink:href="#bb8QnhkpF" opacity="1" fill-opacity="0" stroke="#000000" stroke-width="0.1" stroke-opacity="1"></use></g></g><g><g clip-path="url(#clipd1SeKychh)"><use xlink:href="#ai1svMdM8" opacity="1" fill-opacity="0" stroke="#000000" stroke-width="0.2" stroke-opacity="1"></use></g></g><g><g clip-path="url(#clipa1gVQnvInX)"><use xlink:href="#dyec5kLBu" opacity="1" fill-opacity="0" stroke="#000000" stroke-width="0.2" stroke-opacity="1"></use></g></g><g><g clip-path="url(#clipdAKiVDMjB)"><use xlink:href="#ambhWLWg2" opacity="1" fill-opacity="0" stroke="#000000" stroke-width="0.2" stroke-opacity="1"></use></g></g><g><g clip-path="url(#clipapZJB1WY8)"><use xlink:href="#fxksLofRQ" opacity="1" fill-opacity="0" stroke="#000000" stroke-width="0.2" stroke-opacity="1"></use></g></g><g><g><use xlink:href="#a8NxuoM3n" opacity="1" fill-opacity="0" stroke="#000000" stroke-width="0.1" stroke-opacity="1"></use></g></g><g><g><use xlink:href="#e4yb82L9yk" opacity="1" fill-opacity="0" stroke="#000000" stroke-width="0.1" stroke-opacity="1"></use></g></g><g><g><use xlink:href="#e49dSXKdy" opacity="1" fill-opacity="0" stroke="#000000" stroke-width="0.1" stroke-opacity="1"></use></g></g><g><g><use xlink:href="#g1FGjRXNtc" opacity="1" fill-opacity="0" stroke="#000000" stroke-width="0.1" stroke-opacity="1"></use></g></g><g><g><use xlink:href="#c15Sz43ikw" opacity="1" fill-opacity="0" stroke="#000000" stroke-width="0.1" stroke-opacity="1"></use></g></g><g><g><use xlink:href="#c6j25Wdpr" opacity="1" fill-opacity="0" stroke="#000000" stroke-width="0.1" stroke-opacity="1"></use></g></g><g><g><use xlink:href="#b2Q4qepvYO" opacity="1" fill-opacity="0" stroke="#000000" stroke-width="0.1" stroke-opacity="1"></use></g></g></g></g></svg>