<?xml version="1.0" encoding="utf-8"?>
<!-- Generator: Adobe Illustrator 22.0.1, SVG Export Plug-In . SVG Version: 6.00 Build 0)  -->
<svg version="1.1" id="Layer_1" xmlns="http://www.w3.org/2000/svg" xmlns:xlink="http://www.w3.org/1999/xlink" x="0px" y="0px"
     viewBox="0 0 640 640" style="enable-background:new 0 0 640 640;" xml:space="preserve">
<style type="text/css">
    .st0{fill:none;stroke:#000000;stroke-width:1.000000e-01;stroke-miterlimit:10;}
</style>
<circle class="st0" cx="282.5" cy="122.5" r="110"/>
<circle class="st0" cx="283.5" cy="80.5" r="36"/>
<circle class="st0" cx="324.5" cy="145.5" r="36"/>
<circle class="st0" cx="242.5" cy="146.5" r="36"/>
<circle class="st0" cx="522.5" cy="118.5" r="110"/>
<circle class="st0" cx="523.5" cy="76.5" r="36"/>
<circle class="st0" cx="564.5" cy="141.5" r="36"/>
<circle class="st0" cx="482.5" cy="142.5" r="36"/>
<rect x="38.5" y="29.2" class="st0" width="90.9" height="140.0"/>
<rect x="525.5" y="240.2" class="st0" width="90.9" height="140.0"/>
<rect x="544.5" y="431.2" class="st0" width="90.9" height="140.0"/>
<circle class="st0" cx="399.5" cy="325.5" r="110"/>
<circle class="st0" cx="400.5" cy="283.5" r="36"/>
<circle class="st0" cx="441.5" cy="348.5" r="36"/>
<circle class="st0" cx="359.5" cy="349.5" r="36"/>
<circle class="st0" cx="159.5" cy="323.5" r="110"/>
<circle class="st0" cx="160.5" cy="281.5" r="36"/>
<circle class="st0" cx="201.5" cy="346.5" r="36"/>
<circle class="st0" cx="119.5" cy="347.5" r="36"/>
<rect x="436.5" y="463.2" class="st0" width="90.9" height="140.0"/>
<rect x="328.5" y="467.2" class="st0" width="90.9" height="140.0"/>
<rect x="213.5" y="469.2" class="st0" width="90.9" height="140.0"/>
<rect x="109.5" y="469.2" class="st0" width="90.9" height="140.0"/>
<rect x="4.5" y="468.2" class="st0" width="90.9" height="140.0"/>
</svg>


