<?xml version="1.0" encoding="UTF-8" standalone="no"?>
<!DOCTYPE svg PUBLIC "-//W3C//DTD SVG 1.1//EN" "http://www.w3.org/Graphics/SVG/1.1/DTD/svg11.dtd">
<svg version="1.1" xmlns="http://www.w3.org/2000/svg" xmlns:xlink="http://www.w3.org/1999/xlink" preserveAspectRatio="xMidYMid meet" viewBox="0 0 640 640" width="640" height="640"><defs><path d="M385.73 304.37C385.73 385.17 320.13 450.77 239.33 450.77C158.53 450.77 92.93 385.17 92.93 304.37C92.93 223.57 158.53 157.97 239.33 157.97C320.13 157.97 385.73 223.57 385.73 304.37Z" id="c6I1XUHt3"></path><path d="M247.84 257.13C247.84 261.82 244.03 265.63 239.33 265.63C234.64 265.63 230.83 261.82 230.83 257.13C230.83 252.43 234.64 248.62 239.33 248.62C244.03 248.62 247.84 252.43 247.84 257.13Z" id="a7Yyp4I1kh"></path><path d="M295.08 304.37C295.08 309.06 291.27 312.87 286.58 312.87C281.88 312.87 278.07 309.06 278.07 304.37C278.07 299.68 281.88 295.87 286.58 295.87C291.27 295.87 295.08 299.68 295.08 304.37Z" id="b1MCUwDlP2"></path><path d="M247.84 351.61C247.84 356.31 244.03 360.12 239.33 360.12C234.64 360.12 230.83 356.31 230.83 351.61C230.83 346.92 234.64 343.11 239.33 343.11C244.03 343.11 247.84 346.92 247.84 351.61Z" id="dLRWYXkWY"></path><path d="M200.59 304.37C200.59 309.06 196.78 312.87 192.09 312.87C187.39 312.87 183.58 309.06 183.58 304.37C183.58 299.68 187.39 295.87 192.09 295.87C196.78 295.87 200.59 299.68 200.59 304.37Z" id="b1N1XfIys5"></path><path d="M265.79 304.37C265.79 318.97 253.93 330.83 239.33 330.83C224.73 330.83 212.88 318.97 212.88 304.37C212.88 289.77 224.73 277.91 239.33 277.91C253.93 277.91 265.79 289.77 265.79 304.37Z" id="dGNliy7Rt"></path><path d="" id="a1VO6xWllm"></path><path d="M302.1 437.32L106.86 242.08" id="j2q78tOIlQ"></path><path d="M220.22 234.2C220.22 258.33 200.63 277.91 176.51 277.91C152.39 277.91 132.8 258.33 132.8 234.2C132.8 210.08 152.39 190.49 176.51 190.49C200.63 190.49 220.22 210.08 220.22 234.2Z" id="aErAv1VV0"></path><path d="M345.81 242.08C345.81 266.2 326.22 285.78 302.1 285.78C277.98 285.78 258.39 266.2 258.39 242.08C258.39 217.95 277.98 198.37 302.1 198.37C326.22 198.37 345.81 217.95 345.81 242.08Z" id="h3FoSEFnWk"></path><path d="M353.21 363.71C353.21 387.83 333.62 407.42 309.5 407.42C285.37 407.42 265.79 387.83 265.79 363.71C265.79 339.59 285.37 320 309.5 320C333.62 320 353.21 339.59 353.21 363.71Z" id="cfG8jBMOx"></path><path d="M265.79 191.22C265.79 205.82 253.93 217.68 239.33 217.68C224.73 217.68 212.88 205.82 212.88 191.22C212.88 176.62 224.73 164.77 239.33 164.77C253.93 164.77 265.79 176.62 265.79 191.22Z" id="fmk4fCfCh"></path><path d="M379.66 300.67C379.66 315.28 367.81 327.13 353.21 327.13C338.61 327.13 326.75 315.28 326.75 300.67C326.75 286.07 338.61 274.22 353.21 274.22C367.81 274.22 379.66 286.07 379.66 300.67Z" id="h2iHUp2kc0"></path><path d="" id="aI6rJWzse"></path></defs><g><g><g><g><use xlink:href="#c6I1XUHt3" opacity="1" fill-opacity="0" stroke="#000000" stroke-width="0.1" stroke-opacity="1"></use></g></g><g><g><use xlink:href="#a7Yyp4I1kh" opacity="1" fill-opacity="0" stroke="#1d0216" stroke-width="0.1" stroke-opacity="1"></use></g></g><g><g><use xlink:href="#b1MCUwDlP2" opacity="1" fill-opacity="0" stroke="#1d0216" stroke-width="0.1" stroke-opacity="1"></use></g></g><g><g><use xlink:href="#dLRWYXkWY" opacity="1" fill-opacity="0" stroke="#1d0216" stroke-width="0.1" stroke-opacity="1"></use></g></g><g><g><use xlink:href="#b1N1XfIys5" opacity="1" fill-opacity="0" stroke="#1d0216" stroke-width="0.1" stroke-opacity="1"></use></g></g><g><g><use xlink:href="#dGNliy7Rt" opacity="1" fill-opacity="0" stroke="#1d0216" stroke-width="0.1" stroke-opacity="1"></use></g></g><g><g><use xlink:href="#a1VO6xWllm" opacity="1" fill-opacity="0" stroke="#1d0216" stroke-width="0.1" stroke-opacity="1"></use></g></g><g><g><use xlink:href="#j2q78tOIlQ" opacity="1" fill-opacity="0" stroke="#1d0216" stroke-width="0.1" stroke-opacity="1"></use></g></g><g><g><use xlink:href="#aErAv1VV0" opacity="1" fill-opacity="0" stroke="#1d0216" stroke-width="0.1" stroke-opacity="1"></use></g></g><g><g><use xlink:href="#h3FoSEFnWk" opacity="1" fill-opacity="0" stroke="#1d0216" stroke-width="0.1" stroke-opacity="1"></use></g></g><g><g><use xlink:href="#cfG8jBMOx" opacity="1" fill-opacity="0" stroke="#1d0216" stroke-width="0.1" stroke-opacity="1"></use></g></g><g><g><use xlink:href="#fmk4fCfCh" opacity="1" fill-opacity="0" stroke="#1d0216" stroke-width="0.1" stroke-opacity="1"></use></g></g><g><g><use xlink:href="#h2iHUp2kc0" opacity="1" fill-opacity="0" stroke="#1d0216" stroke-width="0.1" stroke-opacity="1"></use></g></g><g><g><use xlink:href="#aI6rJWzse" opacity="1" fill-opacity="0" stroke="#1d0216" stroke-width="0.1" stroke-opacity="1"></use></g></g></g></g></svg>